<?xml version="1.0" standalone="no"?><!DOCTYPE svg PUBLIC "-//W3C//DTD SVG 1.1//EN" "http://www.w3.org/Graphics/SVG/1.1/DTD/svg11.dtd"><svg t="1588985499600" class="icon" viewBox="0 0 1024 1024" version="1.1" xmlns="http://www.w3.org/2000/svg" p-id="2320" xmlns:xlink="http://www.w3.org/1999/xlink" width="200" height="200"><defs><style type="text/css"></style></defs><path d="M955.24 960V383.25l-278.31-95.9v-7.1l-10.81 3.38-9.8-3.38v6.44l-298.43 93.18-289.13-99.62V857l278.31 95.9v7.1l10.82-3.38 9.8 3.38v-6.44l298.43-93.19zM676.93 309.16L934.63 398v533.14l-257.7-88.79zM89.37 842.35V309.16L347.07 398v533.14z m566.94-0.46L367.69 932V398.41l288.63-90.13z" fill="#13227a" p-id="2321"></path><path d="M666.62 530.21C633.33 482.67 512 304.23 512 229c0-85.32 69.36-154.73 154.62-154.73S821.24 143.66 821.24 229c0 75.23-121.33 253.67-154.62 301.21z m0-344.7a54.44 54.44 0 1 0 54.44 54.44 54.5 54.5 0 0 0-54.44-54.44z" fill="#13227a" p-id="2322"></path><path d="M666.62 84.57c79.57 0 144.31 64.79 144.31 144.42 0 61.8-92.57 208.47-144.31 283.32C614.87 437.46 522.31 290.78 522.31 229c0-79.63 64.74-144.42 144.31-144.42m0 220.13a64.75 64.75 0 1 0-64.75-64.75 64.82 64.82 0 0 0 64.75 64.75m0-240.75c-91.09 0-164.93 73.89-164.93 165S666.62 548 666.62 548s164.93-227.87 164.93-319S757.71 64 666.62 64z m0 220.13a44.13 44.13 0 1 1 44.13-44.13 44.13 44.13 0 0 1-44.13 44.13z" fill="#13227a" p-id="2323"></path></svg>